<svg width="24" height="24" viewBox="0 0 24 24" fill="none" xmlns="http://www.w3.org/2000/svg">
<path d="M5.21403 14.522C5.21403 14.522 9.71903 19.024 11.473 20.777C11.619 20.924 11.811 20.997 12.003 20.997C12.195 20.997 12.387 20.924 12.533 20.777C14.287 19.025 18.782 14.533 18.782 14.533C18.926 14.389 18.998 14.199 18.999 14.01C18.999 13.817 18.925 13.624 18.778 13.476C18.485 13.183 18.012 13.182 17.721 13.472L12.753 18.44V3.74805C12.753 3.33405 12.417 2.99805 12.003 2.99805C11.589 2.99805 11.253 3.33405 11.253 3.74805V18.44L6.27403 13.462C5.98503 13.173 5.51303 13.175 5.22003 13.468C5.07203 13.616 4.99803 13.809 4.99903 14.002C4.99903 14.191 5.07003 14.379 5.21403 14.522Z" fill="#F3EEF7"/>
</svg>
