<svg width="24" height="24" viewBox="0 0 24 24" fill="none" xmlns="http://www.w3.org/2000/svg">
<g clip-path="url(#clip0_351_818)">
<path d="M20 16.78C20.002 14.98 20.003 13.968 20 12.753C19.999 12.336 20.284 12.115 20.567 12.115C20.813 12.115 21.057 12.283 21.105 12.635C21.295 14.047 21.516 15.451 21.652 15.781C21.694 15.88 21.765 15.922 21.837 15.922C21.96 15.922 22.081 15.799 22.043 15.638C21.788 14.569 21.55 13.119 21.436 12.304C23.34 14.158 23.75 14.309 23.628 15.852C23.539 16.981 23.108 18.36 24.001 20.107L21.438 21C21.376 20.686 21.3 20.363 21.212 20.067C20.697 18.346 19.998 18.315 20 16.78ZM3.433 12.115C3.187 12.115 2.943 12.283 2.895 12.635C2.705 14.047 2.484 15.451 2.348 15.781C2.306 15.88 2.235 15.922 2.163 15.922C2.04 15.922 1.919 15.799 1.957 15.638C2.212 14.569 2.45 13.119 2.564 12.304C0.66 14.158 0.25 14.309 0.372 15.852C0.462 16.98 0.893 18.359 0 20.106L2.562 21C2.624 20.686 2.7 20.363 2.788 20.067C3.303 18.346 4.002 18.315 4 16.78C3.998 14.98 3.997 13.968 4 12.753C4.001 12.335 3.715 12.115 3.433 12.115ZM19.001 15.394C16.647 15.588 14.651 16.014 13 16.639V6.763L13.057 6.727C14.368 5.911 16.4 5.366 19 5.124V12.757C18.998 12.298 19.165 11.876 19.469 11.571C19.846 11.193 20.416 11.009 21 11.18V3C17.562 3.105 14.204 3.658 12 5.03C9.796 3.658 6.438 3.105 3 3V11.18C3.583 11.01 4.153 11.192 4.531 11.571C4.835 11.876 5.002 12.297 5 12.755V5.124C7.6 5.366 9.632 5.912 10.943 6.728L11 6.763V16.639C9.349 16.013 7.355 15.587 5 15.393V16.778C5 17.012 4.979 17.209 4.954 17.4C7.203 17.593 9.326 18.015 11 18.781C11.638 19.073 12.362 19.072 13 18.781C14.675 18.015 16.798 17.593 19.046 17.4C19.021 17.209 19 17.014 19 16.779L19.001 15.394ZM7 12.968C8.088 13.267 9.122 13.608 10 13.936V15C9.177 14.655 8.121 14.295 7 13.985V12.968ZM7 11.954C8.121 12.264 9.177 12.624 10 12.969V11.905C9.122 11.577 8.088 11.236 7 10.937V11.954ZM7 6.864V7.881C8.121 8.192 9.177 8.551 10 8.896V7.832C9.122 7.504 8.088 7.163 7 6.864ZM7 9.922C8.121 10.232 9.177 10.592 10 10.937V9.874C9.122 9.546 8.088 9.205 7 8.906V9.922ZM17 13.985C15.879 14.295 14.823 14.655 14 15V13.936C14.878 13.608 15.912 13.267 17 12.968V13.985ZM17 10.937C15.912 11.236 14.878 11.577 14 11.905V12.969C14.823 12.624 15.879 12.264 17 11.954V10.937ZM14 7.832V8.896C14.823 8.551 15.879 8.191 17 7.881V6.864C15.912 7.163 14.878 7.504 14 7.832ZM17 8.906C15.912 9.205 14.878 9.546 14 9.874V10.938C14.823 10.593 15.879 10.233 17 9.923V8.906Z" fill="#F3EEF7"/>
</g>
<defs>
<clipPath id="clip0_351_818">
<rect width="24" height="24" fill="white"/>
</clipPath>
</defs>
</svg>
