<svg width="21" height="16" viewBox="0 0 21 16" fill="none" xmlns="http://www.w3.org/2000/svg">
<path d="M10.3083 7.36743H8.79667V4.83576H10.59C11.565 4.83576 12.1183 5.27076 12.1183 6.05743C12.1183 6.89743 11.4742 7.36743 10.3067 7.36743H10.3083ZM10.5783 8.37243H8.7975V11.1624H10.6567C11.8725 11.1624 12.5167 10.6749 12.5167 9.75826C12.5167 8.84159 11.8542 8.37243 10.5783 8.37243ZM20.5 7.49243V8.50743C19.56 8.59743 18.9858 9.2941 18.645 10.3974C18.3058 11.4966 18.2592 12.8449 18.295 13.8858C18.3325 14.9691 17.4883 15.9691 16.3475 15.9691H4.65417C3.5125 15.9691 2.66833 14.9691 2.70667 13.8858C2.7425 12.8449 2.69583 11.4966 2.35667 10.3974C2.015 9.2941 1.44 8.59743 0.5 8.50743V7.49243C1.44 7.40243 2.01583 6.70576 2.35583 5.60243C2.69583 4.50326 2.7425 3.15493 2.70583 2.11409C2.66833 1.03076 3.5125 0.0307617 4.65417 0.0307617H16.3475C17.4892 0.0307617 18.3325 1.03076 18.295 2.11409C18.2592 3.15493 18.3058 4.50326 18.645 5.60243C18.9858 6.70576 19.56 7.40243 20.5 7.49243ZM13.8942 9.83993C13.8942 8.71159 13.1 7.89576 11.9208 7.76659V7.71909C12.7875 7.57826 13.4675 6.77326 13.4675 5.87493C13.4675 4.5941 12.4567 3.75993 10.9158 3.75993H7.44917V12.2366H10.9333C12.7817 12.2366 13.8942 11.3316 13.8942 9.83993Z" fill="#F3EEF7"/>
</svg>
