<svg width="24" height="24" viewBox="0 0 24 24" fill="none" xmlns="http://www.w3.org/2000/svg">
<g clip-path="url(#clip0_347_683)">
<path d="M24 18.5875C23.6507 18.7196 23.2651 18.7194 22.916 18.5867C22.5669 18.4541 22.2784 18.1983 22.105 17.8675L18.655 13.0965L18.155 12.4295L14.152 17.8735C13.989 18.1904 13.7161 18.437 13.3845 18.5673C13.0529 18.6976 12.6851 18.7027 12.35 18.5815L17.508 11.6615L12.71 5.41053C13.055 5.28621 13.4323 5.28456 13.7784 5.40587C14.1244 5.52717 14.4181 5.76402 14.61 6.07654L18.186 10.9065L21.782 6.09654C21.9463 5.78532 22.2192 5.54532 22.5488 5.42216C22.8785 5.299 23.2419 5.30127 23.57 5.42853L21.708 7.89953L19.186 11.1825C19.116 11.245 19.0599 11.3216 19.0215 11.4072C18.9832 11.4929 18.9633 11.5857 18.9633 11.6795C18.9633 11.7734 18.9832 11.8662 19.0215 11.9518C19.0599 12.0375 19.116 12.1141 19.186 12.1765L23.99 18.5885L24 18.5875ZM0.00199674 11.5755L0.421997 9.50054C1.576 5.39754 6.28 3.69053 9.516 6.23053C11.411 7.71953 11.884 9.82754 11.791 12.2035H1.116C0.942997 16.4465 4.005 19.0085 7.92 17.6995C8.55466 17.4711 9.12274 17.0888 9.57335 16.5868C10.024 16.0849 10.343 15.4791 10.502 14.8235C10.709 14.1575 11.05 14.0435 11.676 14.2355C11.5717 15.0479 11.2845 15.8261 10.8361 16.5115C10.3876 17.1968 9.78961 17.7716 9.087 18.1925C7.92641 18.8274 6.59482 19.079 5.28262 18.9114C3.97042 18.7438 2.7448 18.1657 1.781 17.2595C0.828026 16.1869 0.252073 14.832 0.140997 13.4015C0.140997 13.1665 0.0609967 12.9465 0.00699674 12.7355C0.00212877 12.3492 -0.000204616 11.9629 -3.26251e-06 11.5765L0.00199674 11.5755ZM1.129 11.2895H10.783C10.723 8.21354 8.782 6.03153 6.193 6.01153C3.311 5.97153 1.249 8.10554 1.122 11.2755L1.129 11.2895Z" fill="#F3EEF7"/>
</g>
<defs>
<clipPath id="clip0_347_683">
<rect width="24" height="24" fill="white"/>
</clipPath>
</defs>
</svg>
