<svg width="24" height="24" viewBox="0 0 24 24" fill="none" xmlns="http://www.w3.org/2000/svg">
<path d="M22.27 19.3852H1.73C1.50281 19.3852 1.27785 19.3405 1.06796 19.2535C0.858064 19.1666 0.667351 19.0392 0.506705 18.8785C0.34606 18.7179 0.218629 18.5272 0.131688 18.3173C0.0447478 18.1074 0 17.8824 0 17.6552L0 6.34523C0 5.88641 0.182267 5.44638 0.506705 5.12194C0.831143 4.7975 1.27118 4.61523 1.73 4.61523H22.27C22.4972 4.61523 22.7221 4.65998 22.932 4.74692C23.1419 4.83386 23.3327 4.96129 23.4933 5.12194C23.6539 5.28259 23.7814 5.4733 23.8683 5.68319C23.9553 5.89309 24 6.11805 24 6.34523V17.6532C24.0001 17.8805 23.9555 18.1056 23.8686 18.3156C23.7817 18.5256 23.6543 18.7164 23.4936 18.8772C23.333 19.0379 23.1422 19.1654 22.9323 19.2525C22.7223 19.3395 22.4973 19.3852 22.27 19.3852ZM5.769 15.9232V11.4232L8.077 14.3082L10.384 11.4232V15.9232H12.692V8.07823H10.384L8.077 10.9632L5.769 8.07823H3.46V15.9252L5.769 15.9232ZM21.232 12.0002H18.923V8.07723H16.616V12.0002H14.308L17.769 16.0392L21.232 12.0002Z" fill="#F3EEF7"/>
</svg>
