<svg width="24" height="24" viewBox="0 0 24 24" fill="none" xmlns="http://www.w3.org/2000/svg">
<g clip-path="url(#clip0_347_739)">
<path d="M24 11.986H23.973L19.655 7.668L23.958 3.254V1.461L23.309 0.813H15.111L14.451 1.418V2.463L12.015 0.027V0L12 0.014L11.986 0V0.027L10.696 1.318L10.158 0.779H2.035L1.397 1.471V3.356L2.013 3.972H2.733V9.282L0.027 11.987H0L0.014 12L0 12.014H0.027L2.733 14.72V21.187L3.64 21.71H5.962L7.819 19.806L11.985 23.972V24L12 23.986L12.014 24V23.972L14.524 21.463H15.009C15.12 21.463 15.22 21.393 15.259 21.284L15.405 20.858C15.433 20.774 15.417 20.686 15.368 20.619L16.83 19.157L16.218 21.119C16.175 21.26 16.254 21.408 16.395 21.451C16.42 21.459 16.447 21.463 16.473 21.463H18.297C18.403 21.462 18.498 21.399 18.54 21.3L18.705 20.906C18.73 20.841 18.729 20.768 18.701 20.703C18.674 20.638 18.621 20.587 18.555 20.561C18.526 20.549 18.493 20.542 18.458 20.541H18.383L19.223 17.897H20.455L19.439 21.118C19.396 21.259 19.475 21.407 19.615 21.45C19.64 21.458 19.667 21.462 19.694 21.462H21.696C21.806 21.462 21.903 21.396 21.944 21.292L22.108 20.864C22.159 20.726 22.087 20.574 21.95 20.523C21.921 20.512 21.89 20.506 21.859 20.506H21.714L22.845 16.833C22.872 16.751 22.857 16.66 22.806 16.593L22.431 16.089L22.428 16.084C22.377 16.02 22.301 15.982 22.219 15.982H20.783C20.712 15.982 20.642 16.012 20.593 16.063L20.193 16.502H19.569L19.527 16.456L23.972 12.011H24L23.986 12L24 11.986ZM9.838 21.139L11.417 16.63H10.916L11.213 16.326H12.872L11.309 20.881H11.932L11.853 21.139H9.838ZM13.533 13.623L13.683 13.774L13.414 14.696L13.189 14.922H12.22L12.039 14.741L12.35 13.87L12.638 13.623H13.533ZM5.59 20.829H3.877L3.615 20.679V3.091H2.379L2.279 2.991V1.815L2.422 1.661H9.793L10.006 1.875V2.983L9.864 3.156H8.785V11.844L17.592 3.156H15.506L15.331 2.968V1.805L15.452 1.694H22.942L23.074 1.827V2.897L12.979 13.25H12.606C12.591 13.249 12.578 13.25 12.564 13.251L12.544 13.254C12.499 13.264 12.458 13.284 12.425 13.314L12.082 13.609L12.078 13.612C12.045 13.643 12.019 13.681 12.005 13.723L11.709 14.553L5.59 20.829ZM20.358 16.877L20.832 16.358H22.166L22.475 16.773L21.21 20.88H21.703L21.623 21.089H19.84L20.964 17.525H18.949L17.872 20.916H18.296L18.223 21.09H16.618L17.725 17.542H15.629L14.567 20.881H15.003L14.931 21.09H13.27L14.784 16.63H14.198L14.289 16.359H15.939L16.458 16.896H17.364L17.855 16.342H18.916L19.405 16.877H20.358Z" fill="#F3EEF7"/>
</g>
<defs>
<clipPath id="clip0_347_739">
<rect width="24" height="24" fill="white"/>
</clipPath>
</defs>
</svg>
