<svg width="24" height="24" viewBox="0 0 24 24" fill="none" xmlns="http://www.w3.org/2000/svg">
<path d="M14.523 18.7869C14.523 18.7869 19.024 14.2819 20.778 12.5269C20.924 12.3809 20.997 12.1889 20.997 11.9969C20.997 11.8049 20.924 11.6139 20.778 11.4669C19.025 9.71294 14.523 5.20894 14.523 5.20894C14.379 5.06394 14.189 4.99194 13.999 4.99194C13.806 4.99194 13.614 5.06594 13.467 5.21294C13.174 5.50494 13.172 5.97894 13.463 6.26894L18.441 11.2469H3.74902C3.33502 11.2469 2.99902 11.5829 2.99902 11.9969C2.99902 12.4109 3.33502 12.7469 3.74902 12.7469H18.441L13.462 17.7259C13.173 18.0149 13.176 18.4879 13.468 18.7799C13.616 18.9279 13.809 19.0019 14.001 19.0019C14.191 19.0019 14.379 18.9299 14.523 18.7869Z" fill="#F3EEF7"/>
</svg>
