<svg width="24" height="24" viewBox="0 0 24 24" fill="none" xmlns="http://www.w3.org/2000/svg">
<path d="M12 4.706C9.062 2.876 4.584 2.14 0 2V19.714C3.937 19.834 7.795 20.395 10.667 21.709C11.513 22.097 12.484 22.097 13.334 21.709C16.206 20.395 20.063 19.834 24 19.714V2C19.416 2.14 14.938 2.876 12 4.706ZM2 17.81V4.106C7.157 4.495 9.527 5.569 11 6.44V19.608C9.475 19.062 6.284 18.104 2 17.81ZM22 17.81C17.717 18.103 14.525 19.062 13 19.609V6.438C14.453 5.577 16.83 4.496 22 4.106V17.81ZM20 7.596C17.914 7.908 15.549 8.619 14 9.268V8.204C15.668 7.582 17.881 6.889 20 6.578V7.596ZM20 10.651C17.881 10.962 15.668 11.655 14 12.277V13.341C15.549 12.692 17.914 11.98 20 11.668V10.651ZM20 8.62C17.881 8.931 15.668 9.624 14 10.246V11.31C15.549 10.661 17.914 9.949 20 9.637V8.62ZM20 14.713C17.881 15.024 15.668 15.717 14 16.339V17.403C15.549 16.754 17.914 16.042 20 15.73V14.713ZM20 12.682C17.881 12.993 15.668 13.686 14 14.308V15.372C15.549 14.723 17.914 14.011 20 13.699V12.682ZM4 6.578C6.119 6.889 8.332 7.582 10 8.204V9.268C8.451 8.619 6.086 7.907 4 7.596V6.578ZM4 11.668C6.086 11.98 8.451 12.691 10 13.341V12.277C8.332 11.655 6.119 10.962 4 10.651V11.668ZM4 9.637C6.086 9.949 8.451 10.66 10 11.31V10.246C8.332 9.624 6.119 8.93 4 8.62V9.637ZM4 15.73C6.086 16.042 8.451 16.753 10 17.403V16.339C8.332 15.717 6.119 15.024 4 14.713V15.73ZM4 13.699C6.086 14.011 8.451 14.722 10 15.372V14.308C8.332 13.686 6.119 12.993 4 12.682V13.699Z" fill="#F3EEF7"/>
</svg>
