<svg width="18" height="19" viewBox="0 0 18 19" fill="none" xmlns="http://www.w3.org/2000/svg">
<g clip-path="url(#clip0_233_229)">
<path fill-rule="evenodd" clip-rule="evenodd" d="M18 9.5C18 4.53275 13.9672 0.5 9 0.5C4.03275 0.5 0 4.53275 0 9.5C0 14.4672 4.03275 18.5 9 18.5C13.9672 18.5 18 14.4672 18 9.5ZM17.25 9.5C17.25 4.94675 13.5533 1.25 9 1.25C4.44675 1.25 0.75 4.94675 0.75 9.5C0.75 14.0533 4.44675 17.75 9 17.75C13.5533 17.75 17.25 14.0533 17.25 9.5ZM8.625 13.121L5.80275 9.665L5.25 10.1742L9 14.75L12.75 10.166L12.1852 9.6665L9.375 13.1195V4.25H8.625V13.121Z" fill="#F3EEF7"/>
</g>
<defs>
<clipPath id="clip0_233_229">
<rect width="18" height="18" fill="white" transform="translate(0 0.5)"/>
</clipPath>
</defs>
</svg>
