<svg width="30" height="24" viewBox="0 0 30 24" fill="none" xmlns="http://www.w3.org/2000/svg">
<path fill-rule="evenodd" clip-rule="evenodd" d="M27.5098 9.17524L25.0098 10.4502L25.0098 19.5002C23.751 22.0515 18.0023 23.2502 14.3848 23.2502C10.416 23.2502 5.14852 22.0077 3.75977 19.5002L3.75977 9.75525L0.00976565 7.38524L15.0098 0.750244L28.7598 8.53899L28.7598 19.5002L30.0098 23.2502L26.2598 23.2502L27.5098 19.5002L27.5098 9.17524ZM5.00977 10.544L5.00977 19.1352C6.20727 20.7352 10.281 22.0002 14.3848 22.0002C18.0023 22.0002 22.621 20.8015 23.7598 19.164L23.7598 11.0865L13.856 16.1352L5.00977 10.544ZM2.65852 7.58024L13.9223 14.6977L26.121 8.48024L14.941 2.14774L2.65852 7.58024Z" fill="white"/>
</svg>
