<svg width="40" height="40" viewBox="0 0 40 40" fill="none" xmlns="http://www.w3.org/2000/svg">
<path d="M28.9984 16.7419C28.5773 16.8032 28.2882 16.6913 28.252 16.6699L26.2681 18.1963C26.7936 18.8806 27.79 19.2885 28.8656 19.2581C28.9487 19.2557 29.0314 19.2485 29.1141 19.2413C30.5199 19.1183 31.8392 18.2872 32.7744 16.9311C34.3697 14.6054 35.4234 12.1948 35.4684 12.0929L35.9412 10.9977L34.8709 10.4738C28.9318 7.57704 25.8477 9.46925 24.7985 10.4188C23.4451 11.6449 22.9411 13.5026 23.4595 15.2266C22.3665 16.0673 21.2954 17.1021 20.4756 18.3207C19.8369 17.1268 18.9125 16.0852 17.8635 15.1869C17.931 14.9506 17.9698 14.7217 17.9943 14.5529C18.0061 14.4637 18.0183 14.3793 18.0362 14.3042C18.4866 12.1131 17.3932 9.69917 15.3153 8.30269C13.8364 7.30964 9.71861 5.45444 3.43616 9.67038L2.62578 10.2118L2.9507 11.1245C3.01594 11.3099 4.5812 15.6431 7.14814 18.0359C8.25821 19.071 9.5831 19.5923 10.9851 19.5383C11.0731 19.5355 11.1606 19.5278 11.2433 19.5206C12.8096 19.3836 14.0913 18.5705 14.5927 18.0267L12.7581 16.3295C12.7399 16.3458 10.7768 17.9978 8.85545 16.2053C7.36683 14.821 6.23154 12.4892 5.67801 11.2045C10.1927 8.52049 12.9238 9.70788 13.9184 10.3757C15.085 11.1608 15.7386 12.4123 15.6135 13.5604C12.7597 11.8103 9.87061 10.9455 9.63962 10.8824L8.94273 13.2813C11.5727 14.0413 18.4816 16.9856 18.8646 21.3634L19.2072 25.2791C18.2803 25.6101 17.4592 26.1966 16.8716 26.9881C16.2632 26.7571 15.6084 26.6673 14.942 26.7256C13.1617 26.8814 11.7231 28.0856 11.1814 29.6818C10.8487 29.6325 10.5145 29.6225 10.1789 29.6519C7.77598 29.8621 5.99164 31.9886 6.20187 34.3916L6.25634 35.0142L8.74683 34.7963L8.69235 34.1737C8.60213 33.1425 9.36559 32.2326 10.3968 32.1424C10.8978 32.0986 11.3004 32.2741 11.5492 32.4288L13.4567 31.262L13.455 31.2425C13.3701 30.2158 14.1335 29.3059 15.1599 29.2161C15.6609 29.1723 16.1502 29.3304 16.5368 29.6593L18.5248 29.1325C18.8559 28.2115 19.6914 27.5649 20.6545 27.4806C21.5593 27.4015 22.4402 27.8342 22.9495 28.6131L24.941 28.7427C25.1678 28.4778 25.4867 28.3127 25.832 28.2824C26.5616 28.2186 27.2123 28.7646 27.2761 29.4942C27.2889 29.6401 27.2725 29.7886 27.2281 29.9542L29.3461 31.1364C29.6509 30.8108 30.1748 30.412 30.9433 30.3448C32.315 30.2248 33.5317 31.2457 33.6517 32.6174L36.1422 32.3995C35.9017 29.6512 33.4737 27.6139 30.7254 27.8543C30.2974 27.8918 29.8793 27.9872 29.4849 28.1295C28.8539 26.6309 27.3117 25.6434 25.6141 25.792C25.0937 25.8375 24.6064 25.983 24.1565 26.2185C23.461 25.6078 22.6082 25.2168 21.6976 25.0612L21.5729 23.636L21.5778 23.6355L21.5421 23.2269C21.0897 18.0563 29.0061 14.8688 29.0866 14.8373L28.1772 12.5102C28.0537 12.5553 27.0644 12.9556 25.7803 13.6855C25.8325 13.1614 26.0579 12.6564 26.4805 12.2763C27.711 11.159 29.9652 11.1529 32.6418 12.2225C32.2123 13.0836 31.5366 14.3239 30.7147 15.5183C30.1016 16.4101 29.4438 16.6784 28.9984 16.7419ZM16.304 13.8333L16.3356 14.0266C16.2681 13.9835 16.1958 13.9408 16.1279 13.8928C16.185 13.8731 16.2363 13.8441 16.304 13.8333Z" fill="#F3EEF7"/>
</svg>
