<svg width="25" height="25" viewBox="0 0 25 25" fill="none" xmlns="http://www.w3.org/2000/svg">
<g clip-path="url(#clip0_173_545)">
<path d="M12.443 0.354891C9.27014 0.369698 6.23226 1.64051 3.99392 3.88935C1.75558 6.13818 0.498989 9.18197 0.499023 12.3549C0.499023 15.5375 1.76331 18.5897 4.01374 20.8402C6.26418 23.0906 9.31643 24.3549 12.499 24.3549C15.6816 24.3549 18.7339 23.0906 20.9843 20.8402C23.2347 18.5897 24.499 15.5375 24.499 12.3549C24.499 9.17229 23.2347 6.12005 20.9843 3.86961C18.7339 1.61917 15.6816 0.354891 12.499 0.354891C12.4804 0.354848 12.4617 0.354848 12.443 0.354891ZM17.405 7.57889C17.505 7.57689 17.726 7.60189 17.87 7.71889C17.9657 7.80199 18.0267 7.91797 18.041 8.04389C18.057 8.13689 18.077 8.34989 18.061 8.51589C17.881 10.4139 17.099 15.0179 16.701 17.1429C16.533 18.0429 16.202 18.3439 15.881 18.3729C15.185 18.4379 14.656 17.9129 13.981 17.4709C12.925 16.7779 12.328 16.3469 11.303 15.6709C10.118 14.8909 10.886 14.4609 11.561 13.7609C11.738 13.5769 14.808 10.7839 14.868 10.5309C14.875 10.4989 14.882 10.3809 14.812 10.3189C14.742 10.2569 14.638 10.2779 14.563 10.2949C14.457 10.3189 12.77 11.4349 9.50202 13.6399C9.02202 13.9699 8.58902 14.1299 8.20002 14.1199C7.77202 14.1119 6.94802 13.8789 6.33502 13.6799C5.58302 13.4349 4.98602 13.3059 5.03802 12.8909C5.06502 12.6749 5.36302 12.4539 5.93102 12.2279C9.42902 10.7039 11.761 9.69889 12.929 9.21389C16.261 7.82789 16.954 7.58689 17.405 7.57889Z" fill="#F3EEF7"/>
</g>
<defs>
<clipPath id="clip0_173_545">
<rect width="24" height="24" fill="white" transform="translate(0.499023 0.354858)"/>
</clipPath>
</defs>
</svg>
