<svg width="24" height="24" viewBox="0 0 24 24" fill="none" xmlns="http://www.w3.org/2000/svg">
<path fill-rule="evenodd" clip-rule="evenodd" d="M11.998 2.00122C17.515 2.00122 21.995 6.48122 21.995 11.9992C21.995 17.5162 17.515 21.9962 11.998 21.9962C6.48 21.9962 2 17.5162 2 11.9992C2 6.48122 6.48 2.00122 11.998 2.00122ZM11.998 3.50122C7.308 3.50122 3.5 7.30922 3.5 11.9992C3.5 16.6892 7.308 20.4962 11.998 20.4962C16.688 20.4962 20.495 16.6892 20.495 11.9992C20.495 7.30922 16.688 3.50122 11.998 3.50122ZM14.5 11.9962C14.5 11.3062 15.06 10.7462 15.75 10.7462C16.44 10.7462 17 11.3062 17 11.9962C17 12.6862 16.44 13.2462 15.75 13.2462C15.06 13.2462 14.5 12.6862 14.5 11.9962ZM10.75 11.9962C10.75 11.3062 11.31 10.7462 12 10.7462C12.69 10.7462 13.25 11.3062 13.25 11.9962C13.25 12.6862 12.69 13.2462 12 13.2462C11.31 13.2462 10.75 12.6862 10.75 11.9962ZM7 11.9962C7 11.3062 7.56 10.7462 8.25 10.7462C8.94 10.7462 9.5 11.3062 9.5 11.9962C9.5 12.6862 8.94 13.2462 8.25 13.2462C7.56 13.2462 7 12.6862 7 11.9962Z" fill="#F3EEF7"/>
</svg>
