<svg width="25" height="25" viewBox="0 0 25 25" fill="none" xmlns="http://www.w3.org/2000/svg">
<g clip-path="url(#clip0_173_543)">
<path d="M11.213 24.3549H11.206C7.62502 24.3309 4.87202 23.1499 3.02202 20.8459C1.37702 18.7949 0.527023 15.9409 0.499023 12.3649V12.3479C0.529023 8.76886 1.37802 5.91786 3.02402 3.86586C4.87202 1.55986 7.62702 0.378858 11.207 0.354858H11.221C13.967 0.374858 16.264 1.07986 18.047 2.45286C19.724 3.74286 20.905 5.58286 21.556 7.91986L19.516 8.48886C18.412 4.52886 15.618 2.50486 11.212 2.47386C8.30202 2.49586 6.10202 3.40986 4.67202 5.19086C3.33402 6.85886 2.64302 9.26886 2.61602 12.3549C2.64302 15.4409 3.33402 17.8509 4.67302 19.5189C6.10302 21.3019 8.30402 22.2169 11.213 22.2359C13.836 22.2159 15.571 21.6049 17.013 20.1909C18.66 18.5779 18.631 16.5979 18.103 15.3929C17.793 14.6829 17.23 14.0929 16.469 13.6429C16.277 14.9949 15.847 16.0889 15.185 16.9149C14.299 18.0169 13.045 18.6189 11.455 18.7049C10.253 18.7699 9.09402 18.4869 8.19602 17.9039C7.13302 17.2149 6.51102 16.1639 6.44402 14.9399C6.37902 13.7499 6.85202 12.6549 7.77402 11.8579C8.65402 11.0979 9.89302 10.6509 11.357 10.5669C12.3659 10.5039 13.3786 10.5515 14.377 10.7089C14.251 9.96686 14.002 9.37686 13.627 8.95186C13.114 8.36586 12.319 8.06886 11.268 8.06186H11.239C10.395 8.06186 9.24702 8.29386 8.51802 9.38186L6.76102 8.20186C7.74102 6.74786 9.32902 5.94586 11.239 5.94586H11.283C14.477 5.96586 16.38 7.92086 16.57 11.3339C16.678 11.3799 16.786 11.4279 16.891 11.4759C18.381 12.1759 19.471 13.2369 20.045 14.5459C20.842 16.3659 20.916 19.3359 18.497 21.7039C16.647 23.5139 14.403 24.3319 11.22 24.3539L11.213 24.3549ZM12.216 12.6649C11.974 12.6649 11.729 12.6719 11.477 12.6859C9.64102 12.7889 8.49702 13.6319 8.56102 14.8289C8.62802 16.0849 10.013 16.6679 11.345 16.5959C12.569 16.5309 14.163 16.0529 14.431 12.8859C13.7026 12.7339 12.9601 12.6598 12.216 12.6649Z" fill="#F3EEF7"/>
</g>
<defs>
<clipPath id="clip0_173_543">
<rect width="24" height="24" fill="white" transform="translate(0.499023 0.354858)"/>
</clipPath>
</defs>
</svg>
