<svg width="41" height="34" viewBox="0 0 41 34" fill="none" xmlns="http://www.w3.org/2000/svg">
<path d="M37.3337 11.9999L37.3337 14.5466C36.5403 15.6966 30.9753 17.8316 21.0503 17.8316C10.652 17.8316 4.82366 15.5683 4.00033 14.3516L4.00033 11.9999L37.3337 11.9999ZM40.667 8.66659L0.666992 8.66659L0.666992 14.4849C0.666992 18.9133 10.9237 21.1666 21.0503 21.1666C30.9203 21.1666 40.667 19.0266 40.667 14.6749L40.667 8.66659ZM37.3337 22.1233L37.3337 30.3333L4.00033 30.3333L4.00033 21.9983C2.62866 21.4366 1.53699 20.8133 0.666992 20.1716L0.666992 33.6666L40.667 33.6666L40.667 20.4183C39.6953 21.0883 38.5637 21.6533 37.3337 22.1233ZM24.0003 25.3866C24.0003 27.1983 22.507 28.6666 20.667 28.6666C18.827 28.6666 17.3337 27.1983 17.3337 25.3866L17.3337 23.6666L24.0003 23.6666L24.0003 25.3866ZM15.667 0.333252C13.827 0.333252 12.3337 1.82659 12.3337 3.66659L12.3337 6.99992L15.667 6.99992L15.667 4.49992C15.667 4.03992 16.0403 3.66659 16.5003 3.66659L24.8337 3.66659C25.2937 3.66659 25.667 4.03992 25.667 4.49992L25.667 6.99992L29.0003 6.99992L29.0003 3.66659C29.0003 1.82659 27.507 0.333252 25.667 0.333252L15.667 0.333252Z" fill="#F3EEF7"/>
</svg>
