<svg width="25" height="24" viewBox="0 0 25 24" fill="none" xmlns="http://www.w3.org/2000/svg">
<g clip-path="url(#clip0_389_484)">
<path fill-rule="evenodd" clip-rule="evenodd" d="M12.5 21.593C6.87 16.054 1.5 11.296 1.5 7.191C1.5 3.4 4.568 2 6.781 2C8.093 2 10.932 2.501 12.5 6.457C14.09 2.489 16.964 2.01 18.226 2.01C20.766 2.01 23.5 3.631 23.5 7.191C23.5 11.26 18.364 15.816 12.5 21.593ZM18.226 1.01C16.023 1.01 13.78 2.052 12.5 4.248C11.215 2.042 8.978 1 6.781 1C3.598 1 0.5 3.187 0.5 7.191C0.5 11.852 6.071 16.62 12.5 23C18.93 16.62 24.5 11.852 24.5 7.191C24.5 3.18 21.405 1.01 18.226 1.01Z" fill="#F3EEF7"/>
</g>
<defs>
<clipPath id="clip0_389_484">
<rect width="24" height="24" fill="white" transform="translate(0.5)"/>
</clipPath>
</defs>
</svg>
