<svg width="25" height="25" viewBox="0 0 25 25" fill="none" xmlns="http://www.w3.org/2000/svg">
<path d="M4.81907 2.27484C3.4993 2.27484 2.41907 3.35507 2.41907 4.67484V20.0348C2.41907 21.3546 3.4993 22.4348 4.81907 22.4348H20.1791C21.4988 22.4348 22.5791 21.3546 22.5791 20.0348V4.67484C22.5791 3.35507 21.4988 2.27484 20.1791 2.27484H4.81907ZM4.81907 3.23484H20.1791C20.9799 3.23484 21.6191 3.87397 21.6191 4.67484V20.0348C21.6191 20.8357 20.9799 21.4748 20.1791 21.4748H4.81907C4.0182 21.4748 3.37907 20.8357 3.37907 20.0348V4.67484C3.37907 3.87397 4.0182 3.23484 4.81907 3.23484ZM7.21907 5.64047C6.69336 5.64047 6.22029 5.7976 5.87 6.09234C5.51972 6.38708 5.30469 6.82741 5.30469 7.2989C5.30469 8.19515 6.08208 8.89385 7.07094 8.96297L7.07282 8.9639C7.11994 8.97996 7.16929 8.98851 7.21907 8.98922C8.31011 8.98922 9.13344 8.22496 9.13344 7.2989C9.13336 7.29046 9.13304 7.28202 9.1325 7.27359C9.08366 6.36148 8.27048 5.64047 7.21907 5.64047ZM7.21907 6.58922C7.88734 6.58922 8.15121 6.88766 8.18 7.31109C8.17417 7.72209 7.91991 8.04047 7.21907 8.04047C6.55407 8.04047 6.25344 7.69991 6.25344 7.2989C6.25344 7.0984 6.3266 6.9473 6.48032 6.81797C6.63403 6.68863 6.88077 6.58922 7.21907 6.58922ZM5.77907 9.47484C5.65177 9.47485 5.52969 9.52543 5.43967 9.61544C5.34966 9.70546 5.29908 9.82754 5.29907 9.95484V19.0748C5.29908 19.2021 5.34966 19.3242 5.43967 19.4142C5.52969 19.5043 5.65177 19.5548 5.77907 19.5548H8.65907C8.78637 19.5548 8.90845 19.5043 8.99846 19.4142C9.08848 19.3242 9.13905 19.2021 9.13907 19.0748V16.2595V9.95484C9.13905 9.82754 9.08848 9.70546 8.99846 9.61544C8.90845 9.52543 8.78637 9.47485 8.65907 9.47484H5.77907ZM10.0991 9.47484C9.97177 9.47485 9.84968 9.52543 9.75967 9.61544C9.66966 9.70546 9.61908 9.82754 9.61907 9.95484V19.0748C9.61908 19.2021 9.66966 19.3242 9.75967 19.4142C9.84968 19.5043 9.97177 19.5548 10.0991 19.5548H12.9791C13.1064 19.5548 13.2284 19.5043 13.3185 19.4142C13.4085 19.3242 13.4591 19.2021 13.4591 19.0748V14.2748C13.4591 13.8766 13.5677 13.4805 13.7591 13.2211C13.9504 12.9617 14.1918 12.8061 14.6506 12.8142C15.1238 12.8224 15.3743 12.9844 15.5638 13.2389C15.7532 13.4934 15.8591 13.8748 15.8591 14.2748V19.0748C15.8591 19.2021 15.9097 19.3242 15.9997 19.4142C16.0897 19.5043 16.2118 19.5548 16.3391 19.5548H19.2191C19.3464 19.5548 19.4684 19.5043 19.5585 19.4142C19.6485 19.3242 19.6991 19.2021 19.6991 19.0748V13.9205C19.6991 12.4989 19.278 11.3729 18.5563 10.6111C17.8345 9.84926 16.8307 9.47484 15.7691 9.47484C14.7601 9.47484 13.9923 9.81319 13.4591 10.1583V9.95484C13.4591 9.82754 13.4085 9.70546 13.3185 9.61544C13.2284 9.52543 13.1064 9.47485 12.9791 9.47484H10.0991ZM6.25907 10.4348H8.17907V16.2595V18.5948H6.25907V10.4348ZM10.5791 10.4348H12.4991V11.1839C12.4991 11.2846 12.5308 11.3826 12.5896 11.4643C12.6484 11.546 12.7314 11.6071 12.8269 11.639C12.9223 11.6709 13.0254 11.6721 13.1215 11.6422C13.2176 11.6123 13.3019 11.553 13.3625 11.4727C13.3625 11.4727 14.1163 10.4348 15.7691 10.4348C16.6107 10.4348 17.3324 10.7145 17.8597 11.2711C18.387 11.8277 18.7391 12.6852 18.7391 13.9205V18.5948H16.8191V14.2748C16.8191 13.7148 16.6849 13.1359 16.3344 12.6652C15.9839 12.1945 15.3943 11.8667 14.6675 11.8542C13.9369 11.8412 13.3379 12.1758 12.9866 12.652C12.6353 13.1283 12.4991 13.7131 12.4991 14.2748V18.5948H10.5791V10.4348Z" fill="white"/>
</svg>
