<svg width="24" height="24" viewBox="0 0 24 24" fill="none" xmlns="http://www.w3.org/2000/svg">
<g clip-path="url(#clip0_356_640)">
<path d="M20.8315 3.36707L8.66858 0.108039C6.98925 -0.341921 5.26309 0.654669 4.81311 2.334L0.943008 16.7773C0.493028 18.4568 1.48963 20.1829 3.16896 20.6328L15.3319 23.892C17.0112 24.3419 18.7373 23.3453 19.1874 21.666L23.0574 7.22254C23.5073 5.54321 22.5108 3.81705 20.8315 3.36707ZM6.33346 2.74138C6.55846 1.90171 7.42153 1.40341 8.2612 1.62841L20.4241 4.88744C21.2637 5.11242 21.762 5.9755 21.537 6.81516L17.6669 21.2586C17.4421 22.0983 16.5789 22.5966 15.7393 22.3715L3.57636 19.1125C2.73668 18.8875 2.23839 18.0245 2.46337 17.1849L6.33346 2.74138ZM8.96687 5.07654C8.54702 4.96404 8.11549 5.2132 8.00299 5.63302C7.89051 6.05285 8.13965 6.4844 8.55949 6.59689L17.6817 9.04116C18.1015 9.15366 18.5331 8.90451 18.6455 8.48468C18.7581 8.06483 18.5089 7.6333 18.0891 7.52081L8.96687 5.07654ZM6.98455 9.43392C7.09705 9.01409 7.52859 8.76493 7.94841 8.87743L17.0706 11.3217C17.4904 11.4342 17.7395 11.8657 17.6271 12.2856C17.5146 12.7054 17.0831 12.9546 16.6632 12.8421L7.54104 10.3978C7.12121 10.2853 6.87205 9.85375 6.98455 9.43392ZM6.92997 12.6783C6.51014 12.5658 6.07859 12.815 5.96611 13.2348C5.85361 13.6546 6.10277 14.0861 6.5226 14.1987L11.8439 15.6246C12.2637 15.737 12.6952 15.4879 12.8077 15.0679C12.9202 14.6481 12.6711 14.2167 12.2513 14.1041L6.92997 12.6783Z" fill="#F3EEF7"/>
</g>
<defs>
<clipPath id="clip0_356_640">
<rect width="24" height="24" fill="white"/>
</clipPath>
</defs>
</svg>
