<svg width="24" height="24" viewBox="0 0 24 24" fill="none" xmlns="http://www.w3.org/2000/svg">
<g clip-path="url(#clip0_347_773)">
<path d="M1.10497 18.0196C0.373185 16.4422 -0.00399624 14.7235 -3.0078e-05 12.9846C-3.0078e-05 12.5193 0.0259699 12.0606 0.0779699 11.6086C0.129581 11.158 0.206705 10.7106 0.30897 10.2686C0.871644 7.85149 2.16991 5.66826 4.02497 4.01964C5.57474 2.63938 7.45598 1.68463 9.48497 1.24864C10.6107 1.00794 11.7652 0.930481 12.913 1.01864C14.365 1.13064 15.738 1.49564 16.99 2.06864C17.9939 2.52921 18.9294 3.12618 19.77 3.84264C21.9046 5.65748 23.3382 8.16104 23.823 10.9206C23.9414 11.6022 24.0006 12.2928 24 12.9846C24 13.2873 23.988 13.592 23.964 13.8986C23.8786 15.0292 23.6335 16.1419 23.236 17.2036C22.6969 18.6352 21.889 19.9505 20.856 21.0786C19.526 22.4356 17.836 23.0406 16.426 23.0146C15.4281 22.9921 14.4675 22.6311 13.702 21.9906C12.712 21.1376 12.311 20.1606 12.172 19.0716C12.1368 18.5621 12.18 18.0501 12.3 17.5536C12.405 17.1736 12.67 16.4376 13.06 16.1166C12.605 15.9196 12.02 15.4926 11.834 15.2876C11.789 15.2376 11.794 15.1576 11.834 15.1046C11.8539 15.078 11.8818 15.0584 11.9137 15.0489C11.9456 15.0393 11.9797 15.0403 12.011 15.0516C12.403 15.1856 12.88 15.3186 13.383 15.4016C14.043 15.5126 14.867 15.6516 15.7 15.6936C17.73 15.7936 19.853 14.8806 20.512 13.0666C21.171 11.2526 20.915 9.45764 18.552 8.38164C16.189 7.30564 15.098 6.02564 13.189 5.25364C11.942 4.74864 10.553 5.04864 9.12897 5.83564C5.29097 7.95664 1.85197 14.6576 3.43897 20.8676C3.45008 20.9078 3.44775 20.9505 3.43232 20.9892C3.4169 21.028 3.38923 21.0606 3.35353 21.0821C3.31784 21.1036 3.27608 21.1129 3.23464 21.1085C3.19319 21.1041 3.15432 21.0862 3.12397 21.0576C2.6613 20.5498 2.24309 20.0031 1.87397 19.4236C1.58667 18.9733 1.32977 18.5042 1.10497 18.0196ZM11.57 6.08664C12.219 6.03564 12.784 6.58764 12.88 7.32264C13.01 8.30164 12.652 9.31264 11.47 9.33564C10.46 9.35564 10.155 8.33864 10.222 7.72164C10.288 7.10564 10.796 6.14664 11.572 6.08664" fill="#F3EEF7"/>
</g>
<defs>
<clipPath id="clip0_347_773">
<rect width="24" height="24" fill="white"/>
</clipPath>
</defs>
</svg>
