<svg width="24" height="24" viewBox="0 0 24 24" fill="none" xmlns="http://www.w3.org/2000/svg">
<g clip-path="url(#clip0_347_675)">
<path d="M13.983 11.0777H16.102C16.1511 11.0777 16.1983 11.0582 16.2332 11.0235C16.268 10.9889 16.2877 10.9418 16.288 10.8927V9.00567C16.288 8.95634 16.2684 8.90903 16.2335 8.87415C16.1986 8.83927 16.1513 8.81967 16.102 8.81967H13.983C13.9339 8.81967 13.8869 8.83916 13.8522 8.87386C13.8175 8.90855 13.798 8.95561 13.798 9.00467V10.8927C13.798 10.9947 13.881 11.0777 13.983 11.0777ZM11.029 5.64767H13.147C13.1963 5.64767 13.2436 5.62808 13.2785 5.59319C13.3134 5.55831 13.333 5.511 13.333 5.46167V3.57367C13.3327 3.52452 13.313 3.47746 13.2782 3.4428C13.2433 3.40813 13.1961 3.38867 13.147 3.38867H11.029C10.9799 3.38867 10.9329 3.40816 10.8982 3.44286C10.8635 3.47755 10.844 3.52461 10.844 3.57367V5.46167C10.844 5.56367 10.926 5.64767 11.029 5.64767ZM11.029 8.36267H13.147C13.1962 8.36241 13.2434 8.34273 13.2782 8.3079C13.313 8.27308 13.3327 8.22592 13.333 8.17667V6.28967C13.3327 6.24052 13.313 6.19346 13.2782 6.1588C13.2433 6.12413 13.1961 6.10467 13.147 6.10467H11.029C10.9799 6.10467 10.9329 6.12416 10.8982 6.15886C10.8635 6.19355 10.844 6.24061 10.844 6.28967V8.17667C10.844 8.27867 10.926 8.36167 11.029 8.36267ZM8.09899 8.36267H10.219C10.268 8.36215 10.3148 8.34232 10.3492 8.30749C10.3837 8.27267 10.403 8.22566 10.403 8.17667V6.28967C10.403 6.24061 10.3835 6.19355 10.3488 6.15886C10.3141 6.12416 10.2671 6.10467 10.218 6.10467H8.09999C8.05092 6.10467 8.00387 6.12416 7.96917 6.15886C7.93448 6.19355 7.91499 6.24061 7.91499 6.28967V8.17667C7.91499 8.27867 7.99799 8.36167 8.09999 8.36267M5.13599 8.36267H7.25499C7.30414 8.36241 7.3512 8.34269 7.38586 8.30784C7.42053 8.27299 7.43999 8.22583 7.43999 8.17667V6.28967C7.43999 6.24061 7.4205 6.19355 7.3858 6.15886C7.35111 6.12416 7.30405 6.10467 7.25499 6.10467H5.13599C5.08683 6.10467 5.03967 6.12413 5.00482 6.1588C4.96996 6.19346 4.95025 6.24052 4.94999 6.28967V8.17667C4.94999 8.27867 5.03399 8.36167 5.13599 8.36267ZM11.029 11.0777H13.147C13.1961 11.0777 13.2433 11.0582 13.2782 11.0235C13.313 10.9889 13.3327 10.9418 13.333 10.8927V9.00567C13.333 8.95634 13.3134 8.90903 13.2785 8.87415C13.2436 8.83927 13.1963 8.81967 13.147 8.81967H11.029C10.9799 8.81967 10.9329 8.83916 10.8982 8.87386C10.8635 8.90855 10.844 8.95561 10.844 9.00467V10.8927C10.844 10.9947 10.926 11.0777 11.029 11.0777ZM8.09899 11.0777H10.219C10.2679 11.0774 10.3147 11.0578 10.3492 11.0231C10.3836 10.9885 10.403 10.9416 10.403 10.8927V9.00567C10.4031 8.98138 10.3985 8.95729 10.3893 8.9348C10.3801 8.9123 10.3666 8.89183 10.3495 8.87456C10.3324 8.85729 10.3121 8.84355 10.2897 8.83414C10.2673 8.82472 10.2433 8.8198 10.219 8.81967H8.09899C8.0501 8.81994 8.0033 8.83954 7.96882 8.87421C7.93434 8.90888 7.91499 8.95578 7.91499 9.00467V10.8927C7.91499 10.9947 7.99799 11.0777 8.09999 11.0777M5.13599 11.0777H7.25499C7.30405 11.0777 7.35111 11.0582 7.3858 11.0235C7.4205 10.9888 7.43999 10.9417 7.43999 10.8927V9.00567C7.44012 8.98138 7.43546 8.95729 7.42629 8.9348C7.41711 8.9123 7.4036 8.89183 7.38651 8.87456C7.36942 8.85729 7.3491 8.84355 7.32671 8.83414C7.30431 8.82472 7.28028 8.8198 7.25599 8.81967H5.13599C5.08666 8.81967 5.03935 8.83927 5.00446 8.87415C4.96958 8.90903 4.94999 8.95634 4.94999 9.00567V10.8927C4.94999 10.9947 5.03399 11.0777 5.13599 11.0777ZM2.21599 11.0777H4.33599C4.38488 11.0774 4.43168 11.0578 4.46616 11.0231C4.50063 10.9885 4.51999 10.9416 4.51999 10.8927V9.00567C4.52012 8.98138 4.51546 8.95729 4.50629 8.9348C4.49711 8.9123 4.4836 8.89183 4.46651 8.87456C4.44942 8.85729 4.4291 8.84355 4.40671 8.83414C4.38431 8.82472 4.36028 8.8198 4.33599 8.81967H2.21599C2.16709 8.81994 2.1203 8.83954 2.08582 8.87421C2.05134 8.90888 2.03199 8.95578 2.03199 9.00467V10.8927C2.03199 10.9947 2.11299 11.0777 2.21599 11.0777ZM23.763 9.88967C23.698 9.83867 23.091 9.37967 21.809 9.37967C21.471 9.38067 21.133 9.40967 20.799 9.46667C20.551 7.76667 19.146 6.93667 19.083 6.90067L18.739 6.70167L18.513 7.02867C18.229 7.46667 18.023 7.95067 17.901 8.45867C17.671 9.42867 17.811 10.3407 18.304 11.1197C17.709 11.4517 16.754 11.5327 16.56 11.5397H0.750987C0.552501 11.5399 0.362191 11.6188 0.221653 11.7589C0.0811149 11.8991 0.00177922 12.0892 0.000986508 12.2877C-0.0175318 13.6725 0.216981 15.0491 0.692987 16.3497C1.23799 17.7777 2.04799 18.8297 3.10299 19.4737C4.28299 20.1967 6.20299 20.6107 8.37799 20.6107C9.36099 20.6137 10.341 20.5247 11.308 20.3447C12.6508 20.098 13.943 19.6285 15.131 18.9557C16.111 18.3887 16.991 17.6677 17.741 16.8197C18.993 15.4017 19.739 13.8227 20.294 12.4197H20.515C21.887 12.4197 22.73 11.8707 23.195 11.4107C23.504 11.1177 23.745 10.7607 23.902 10.3647L24 10.0767L23.763 9.88967Z" fill="#F3EEF7"/>
</g>
<defs>
<clipPath id="clip0_347_675">
<rect width="24" height="24" fill="white"/>
</clipPath>
</defs>
</svg>
