<svg width="24" height="24" viewBox="0 0 24 24" fill="none" xmlns="http://www.w3.org/2000/svg">
<g clip-path="url(#clip0_347_765)">
<path d="M12 0C8.8174 0 5.76516 1.26428 3.51472 3.51472C1.26428 5.76516 0 8.8174 0 12C0 15.1826 1.26428 18.2348 3.51472 20.4853C5.76516 22.7357 8.8174 24 12 24C15.1826 24 18.2348 22.7357 20.4853 20.4853C22.7357 18.2348 24 15.1826 24 12C24 8.8174 22.7357 5.76516 20.4853 3.51472C18.2348 1.26428 15.1826 0 12 0ZM6.718 5.282L13.436 12L6.718 18.718L4.682 16.682L9.364 12L4.682 7.318L6.718 5.282ZM13.918 5.282L20.636 12L13.918 18.718L11.882 16.682L16.564 12L11.882 7.318L13.918 5.282Z" fill="#F3EEF7"/>
</g>
<defs>
<clipPath id="clip0_347_765">
<rect width="24" height="24" fill="white"/>
</clipPath>
</defs>
</svg>
