<svg width="24" height="24" viewBox="0 0 24 24" fill="none" xmlns="http://www.w3.org/2000/svg">
<path d="M12.19 2.38044C10.1019 2.33204 8.05775 2.98466 6.38398 4.2341C4.71021 5.48354 3.50332 7.25774 2.95601 9.27344C2.90101 9.28644 3.00901 9.25344 2.95601 9.27344C-0.918993 11.8244 -0.965993 17.3834 2.70901 20.2144L2.71501 20.2074L2.70801 20.2374C3.88189 21.1236 5.3142 21.6 6.78501 21.5934H11.958L11.988 21.6234H17.18C23.867 21.6764 26.556 13.0184 21.015 9.27344C20.5378 7.51386 19.5574 5.93184 18.194 4.72144L18.151 4.76444L18.157 4.71444C16.5052 3.25751 14.3919 2.43088 12.19 2.38044ZM11.832 6.52644C13.076 6.48644 14.35 6.89444 15.318 7.67644C15.9137 8.1736 16.3902 8.79807 16.7124 9.50385C17.0347 10.2096 17.1945 10.9787 17.18 11.7544V12.2724C20.71 12.2024 20.71 17.5344 17.18 17.4654H11.987L11.979 17.4744V17.4344H6.78501C6.41704 17.4344 6.0533 17.356 5.71801 17.2044C5.33545 17.0312 5.00161 16.7678 4.74319 16.4368C4.48476 16.1058 4.31047 15.717 4.23524 15.3039C4.16001 14.8907 4.1861 14.4655 4.31126 14.0646C4.43643 13.6638 4.65693 13.2993 4.95388 13.0023C5.25082 12.7054 5.61535 12.4849 6.01621 12.3597C6.41707 12.2345 6.8423 12.2084 7.25545 12.2837C7.6686 12.3589 8.05735 12.5332 8.38836 12.7916C8.71938 13.05 8.98279 13.3849 9.15601 13.7674L12.169 10.7554C11.1678 9.45035 9.72434 8.55596 8.11001 8.24044C8.12801 8.23044 8.15001 8.21444 8.16401 8.21744C8.63153 7.7045 9.19725 7.29062 9.82765 7.00033C10.4581 6.71003 11.1403 6.54923 11.834 6.52744L11.832 6.52644Z" fill="#F3EEF7"/>
</svg>
