<svg width="24" height="24" viewBox="0 0 24 24" fill="none" xmlns="http://www.w3.org/2000/svg">
<g clip-path="url(#clip0_347_679)">
<path d="M11.998 24.0002C11.677 24.0002 11.357 23.9163 11.076 23.7533L8.14 22.0163C7.702 21.7713 7.916 21.6842 8.06 21.6332C8.645 21.4302 8.763 21.3832 9.388 21.0292C9.453 20.9922 9.539 21.0062 9.606 21.0462L11.862 22.3853C11.944 22.4303 12.059 22.4303 12.134 22.3853L20.929 17.3092C21.011 17.2622 21.063 17.1682 21.063 17.0712V6.92125C21.063 6.82225 21.01 6.72925 20.926 6.67925L12.135 1.60725C12.054 1.56025 11.946 1.56025 11.864 1.60725L3.075 6.68025C2.99 6.72925 2.936 6.82525 2.936 6.92125V17.0712C2.936 17.1682 2.99 17.2602 3.075 17.3062L5.484 18.6982C6.791 19.3522 7.592 18.5823 7.592 17.8083V7.78725C7.592 7.64525 7.706 7.53425 7.848 7.53425H8.963C9.102 7.53425 9.218 7.64625 9.218 7.78725V17.8083C9.218 19.5533 8.268 20.5532 6.614 20.5532C6.106 20.5532 5.705 20.5533 4.588 20.0023L2.28 18.6752C1.71 18.3462 1.358 17.7302 1.358 17.0712V6.92125C1.358 6.26225 1.711 5.64625 2.28 5.31825L11.075 0.23625C11.632 -0.07875 12.371 -0.07875 12.923 0.23625L21.717 5.31825C22.287 5.64725 22.641 6.26225 22.641 6.92125V17.0712C22.641 17.7302 22.287 18.3442 21.717 18.6752L12.923 23.7533C12.643 23.9163 12.324 24.0002 11.998 24.0002ZM19.099 13.9932C19.099 12.0932 17.815 11.5872 15.112 11.2302C12.381 10.8692 12.103 10.6823 12.103 10.0433C12.103 9.51525 12.338 8.81025 14.361 8.81025C16.168 8.81025 16.834 9.19925 17.108 10.4172C17.132 10.5322 17.237 10.6163 17.355 10.6163H18.496C18.567 10.6163 18.634 10.5852 18.682 10.5352C18.73 10.4812 18.756 10.4122 18.749 10.3392C18.572 8.24125 17.178 7.26325 14.361 7.26325C11.853 7.26325 10.357 8.32125 10.357 10.0962C10.357 12.0212 11.845 12.5533 14.252 12.7913C17.132 13.0733 17.355 13.4943 17.355 14.0603C17.355 15.0433 16.566 15.4622 14.713 15.4622C12.386 15.4622 11.874 14.8783 11.702 13.7203C11.682 13.5963 11.576 13.5052 11.449 13.5052H10.312C10.171 13.5052 10.058 13.6173 10.058 13.7583C10.058 15.2403 10.864 17.0063 14.713 17.0063C17.501 17.0073 19.099 15.9102 19.099 13.9932Z" fill="#F3EEF7"/>
</g>
<defs>
<clipPath id="clip0_347_679">
<rect width="24" height="24" fill="white"/>
</clipPath>
</defs>
</svg>
