<svg width="24" height="24" viewBox="0 0 24 24" fill="none" xmlns="http://www.w3.org/2000/svg">
<path d="M21.8068 18.2848L13.5528 0.756487C13.3458 0.318287 12.9138 0.0291868 12.4242 0.00238684C11.9219 -0.0269132 11.4719 0.215387 11.218 0.627687L2.266 15.1271C1.9887 15.5789 1.9942 16.1362 2.2818 16.5826L6.6577 23.3612C6.9185 23.7658 7.3704 24 7.84 24C7.9732 24 8.107 23.9812 8.2387 23.9423L20.9406 20.1855C21.3297 20.0704 21.6478 19.7951 21.8143 19.4302C21.9808 19.0653 21.9776 18.6474 21.8068 18.2848ZM19.9587 19.0367L9.1814 22.2242C8.8522 22.3217 8.5366 22.0369 8.6058 21.7048L12.4559 3.26619C12.5279 2.92139 13.0045 2.86659 13.1549 3.18589L20.2837 18.3239C20.4181 18.6095 20.2647 18.9463 19.9587 19.0367Z" fill="#F3EEF7"/>
</svg>
