<svg width="24" height="24" viewBox="0 0 24 24" fill="none" xmlns="http://www.w3.org/2000/svg">
<path d="M14.23 12.0045C14.23 12.5973 13.9946 13.1659 13.5754 13.5852C13.1563 14.0045 12.5879 14.2402 11.995 14.2405C11.402 14.2405 10.8332 14.0049 10.4139 13.5855C9.99458 13.1662 9.759 12.5975 9.759 12.0045C9.759 11.4116 9.99444 10.843 10.4136 10.4237C10.8327 10.0044 11.4011 9.76872 11.994 9.76845C12.587 9.76845 13.1558 10.004 13.5751 10.4234C13.9944 10.8427 14.23 11.4114 14.23 12.0045ZM16.878 1.31445C15.532 1.31445 13.771 2.27445 11.99 3.93645C10.21 2.28345 8.448 1.33445 7.103 1.33445C6.693 1.33445 6.32 1.42745 5.997 1.61245C4.622 2.40545 4.314 4.87645 5.024 7.97745C1.98 8.91745 0 10.4205 0 12.0045C0 13.5945 1.99 15.1015 5.043 16.0345C4.339 19.1475 4.653 21.6225 6.031 22.4145C6.351 22.6015 6.721 22.6895 7.133 22.6895C8.478 22.6895 10.24 21.7295 12.021 20.0655C13.801 21.7195 15.563 22.6685 16.908 22.6685C17.318 22.6685 17.691 22.5785 18.014 22.3935C19.388 21.6015 19.697 19.1305 18.987 16.0285C22.02 15.0965 24 13.5905 24 12.0045C24 10.4145 22.01 8.90745 18.957 7.97245C19.661 4.86245 19.347 2.38545 17.969 1.59245C17.651 1.40845 17.282 1.31545 16.878 1.31445ZM16.873 2.40445V2.41045C17.098 2.41045 17.279 2.45445 17.431 2.53745C18.097 2.91945 18.386 4.37245 18.161 6.24145C18.107 6.70145 18.019 7.18645 17.911 7.68145C16.951 7.44545 15.905 7.26445 14.804 7.14745C14.144 6.24245 13.459 5.42045 12.769 4.70045C14.361 3.22045 15.856 2.40845 16.874 2.40545L16.873 2.40445ZM7.103 2.42445C8.115 2.42445 9.617 3.23245 11.213 4.70445C10.527 5.42445 9.843 6.24145 9.193 7.14645C8.086 7.26345 7.039 7.44445 6.08 7.68445C5.968 7.19445 5.885 6.72045 5.826 6.26445C5.596 4.39645 5.88 2.94445 6.54 2.55745C6.73 2.46745 6.94 2.42945 7.103 2.42445ZM11.985 5.47445C12.44 5.94245 12.895 6.46645 13.345 7.03845C12.905 7.01845 12.455 7.00445 12 7.00445C11.54 7.00445 11.085 7.01445 10.64 7.03845C11.08 6.46645 11.535 5.94345 11.985 5.47445ZM12 8.10045C12.74 8.10045 13.477 8.13445 14.202 8.19345C14.608 8.77545 15.004 9.39645 15.385 10.0535C15.757 10.6935 16.095 11.3435 16.403 11.9995C16.095 12.6545 15.757 13.3095 15.39 13.9495C15.01 14.6095 14.617 15.2375 14.21 15.8195C13.482 15.8825 12.744 15.9175 12 15.9175C11.26 15.9175 10.523 15.8825 9.798 15.8245C9.392 15.2425 8.996 14.6205 8.615 13.9645C8.243 13.3245 7.905 12.6745 7.597 12.0185C7.9 11.3615 8.243 10.7055 8.61 10.0645C8.99 9.40445 9.383 8.77845 9.79 8.19645C10.518 8.13245 11.256 8.09845 12 8.09845V8.10045ZM8.365 8.35445C8.125 8.73145 7.885 9.11745 7.661 9.51445C7.436 9.90445 7.226 10.2965 7.026 10.6885C6.761 10.0325 6.536 9.37845 6.35 8.74145C6.99 8.59145 7.665 8.45745 8.365 8.35445ZM15.625 8.35445C16.32 8.45745 16.99 8.58445 17.631 8.74145C17.451 9.37345 17.226 10.0235 16.971 10.6745C16.771 10.2845 16.561 9.89145 16.331 9.50045C16.106 9.10845 15.866 8.72645 15.626 8.35445H15.625ZM18.688 9.02945C19.172 9.17945 19.632 9.34645 20.063 9.52745C21.795 10.2675 22.915 11.2355 22.915 12.0035C22.91 12.7715 21.79 13.7435 20.058 14.4785C19.638 14.6585 19.178 14.8205 18.703 14.9715C18.423 14.0135 18.057 13.0155 17.603 11.9915C18.053 10.9745 18.413 9.98145 18.688 9.02745V9.02945ZM5.293 9.03345C5.571 9.99345 5.938 10.9905 6.393 12.0135C5.943 13.0305 5.581 14.0235 5.307 14.9775C4.823 14.8275 4.363 14.6595 3.937 14.4775C2.205 13.7405 1.085 12.7715 1.085 12.0035C1.085 11.2355 2.205 10.2615 3.937 9.52745C4.357 9.34745 4.817 9.18545 5.293 9.03345ZM16.971 13.3135C17.236 13.9705 17.461 14.6255 17.647 15.2615C17.007 15.4185 16.331 15.5515 15.631 15.6515C15.871 15.2765 16.111 14.8895 16.336 14.4935C16.561 14.1035 16.77 13.7055 16.971 13.3135ZM7.026 13.3335C7.226 13.7255 7.436 14.1165 7.666 14.5085C7.896 14.8985 8.131 15.2805 8.371 15.6515C7.676 15.5495 7.006 15.4215 6.365 15.2655C6.545 14.6355 6.771 13.9835 7.025 13.3325L7.026 13.3335ZM17.92 16.3205C18.032 16.8135 18.12 17.2885 18.174 17.7435C18.404 19.6115 18.12 21.0635 17.46 21.4515C17.313 21.5415 17.122 21.5795 16.897 21.5795C15.885 21.5795 14.383 20.7725 12.787 19.2995C13.473 18.5795 14.157 17.7635 14.807 16.8595C15.914 16.7415 16.961 16.5605 17.92 16.3205ZM6.09 16.3305C7.05 16.5645 8.096 16.7455 9.197 16.8625C9.857 17.7675 10.542 18.5895 11.232 19.3085C9.637 20.7915 8.14 21.6035 7.122 21.6035C6.902 21.5985 6.716 21.5535 6.569 21.4715C5.903 21.0915 5.614 19.6375 5.839 17.7685C5.893 17.3085 5.982 16.8245 6.09 16.3305ZM10.65 16.9705C11.09 16.9905 11.54 17.0045 11.995 17.0045C12.455 17.0045 12.91 16.9945 13.355 16.9705C12.915 17.5425 12.46 18.0655 12.01 18.5355C11.555 18.0655 11.1 17.5425 10.65 16.9705Z" fill="#F3EEF7"/>
</svg>
