<svg width="24" height="24" viewBox="0 0 24 24" fill="none" xmlns="http://www.w3.org/2000/svg">
<g clip-path="url(#clip0_347_664)">
<path d="M12.118 5.46591C11.9077 5.46404 11.698 5.49095 11.495 5.54591C11.217 5.61291 10.793 5.87791 10.542 6.12891C10.132 6.55191 10.052 6.73791 9.88 7.59791C9.8 8.02091 10.29 9.02791 10.727 9.33191C11.177 9.64891 11.812 9.83391 12.792 9.93991C14.221 10.0999 14.632 10.5759 14.632 12.1369C14.632 13.5139 14.247 13.8839 12.672 14.0429C10.965 14.2149 10.092 14.8769 9.907 16.1599C9.801 16.9409 10.317 17.9199 11.032 18.2509C12.659 19.0189 14.182 18.0529 14.499 16.0549C14.71 14.7709 15.121 14.4129 16.497 14.3079C18.085 14.1749 18.906 13.6329 19.21 12.5209C19.488 11.5009 18.906 10.3639 17.913 9.96691C17.649 9.86091 17.04 9.72891 16.563 9.67591C15.068 9.51591 14.684 9.25191 14.525 8.28591C14.3 6.94891 14.208 6.72391 13.731 6.19591C13.5284 5.96788 13.2801 5.78504 13.0022 5.65927C12.7243 5.5335 12.423 5.46762 12.118 5.46591ZM7.333 9.82591C7.16603 9.82251 6.99923 9.83862 6.836 9.87391C5.367 10.1919 4.666 11.9249 5.486 13.1689C6.664 14.9429 9.43 14.1219 9.456 11.9919C9.468 10.7989 8.476 9.84891 7.333 9.82591ZM2.089 14.1899C1.94532 14.1934 1.80232 14.2108 1.662 14.2419C-0.495999 14.7179 -0.574999 17.8679 1.556 18.4239C2.086 18.5689 2.138 18.5689 2.667 18.4369C3.858 18.1189 4.533 16.9809 4.216 15.8299C3.938 14.8099 3.072 14.1659 2.089 14.1899ZM21.913 14.1979C21.68 14.1999 21.436 14.2559 21.129 14.3599C19.739 14.8369 19.263 16.4519 20.149 17.6959C20.706 18.4899 22.109 18.7539 22.969 18.2119C24.385 17.3379 24.332 15.1549 22.876 14.4659C22.496 14.2799 22.213 14.1949 21.913 14.1979Z" fill="#F3EEF7"/>
</g>
<defs>
<clipPath id="clip0_347_664">
<rect width="24" height="24" fill="white"/>
</clipPath>
</defs>
</svg>
