<svg width="24" height="24" viewBox="0 0 24 24" fill="none" xmlns="http://www.w3.org/2000/svg">
<g clip-path="url(#clip0_347_668)">
<path d="M16.634 16.5041C17.504 16.4291 18.177 15.6641 18.134 14.7501C18.087 13.8361 17.338 13.1021 16.425 13.1021H16.364C15.9109 13.1183 15.4828 13.3137 15.1738 13.6454C14.8647 13.9772 14.7001 14.418 14.716 14.8711C14.746 15.3501 14.942 15.7401 15.21 16.0241C14.162 18.0621 12.589 19.5601 10.205 20.8191C8.602 21.6571 6.909 21.9731 5.261 21.7491C3.883 21.5541 2.805 20.9391 2.145 19.9501C1.157 18.4511 1.067 16.8341 1.89 15.2161C2.49 14.0461 3.389 13.1931 3.989 12.7731C3.80787 12.2709 3.66742 11.7549 3.569 11.2301C-0.867999 14.4081 -0.415999 18.7521 0.932001 20.8051C1.936 22.3031 3.989 23.2611 6.236 23.2611C6.836 23.2611 7.466 23.2171 8.079 23.0671C11.976 22.3181 14.927 19.9811 16.62 16.5351L16.634 16.5041ZM21.982 12.7581C19.662 10.0301 16.244 8.53212 12.348 8.53212H11.838C11.585 7.97812 11.001 7.63312 10.34 7.63312H10.295C9.352 7.63312 8.617 8.44312 8.648 9.38612C8.678 10.2841 9.442 11.0341 10.356 11.0341H10.43C10.7542 11.0216 11.0679 10.916 11.3337 10.73C11.5995 10.544 11.8062 10.2854 11.929 9.98512H12.484C14.793 9.98512 16.979 10.6591 18.972 11.9771C20.499 12.9821 21.594 14.3001 22.209 15.8741C22.747 17.1621 22.718 18.4211 22.164 19.4711C21.309 21.1181 19.87 21.9881 17.968 21.9881C16.769 21.9881 15.601 21.6131 15.001 21.3441C14.641 21.6421 14.041 22.1371 13.607 22.4371C14.925 23.0351 16.259 23.3801 17.547 23.3801C20.469 23.3801 22.641 21.7331 23.466 20.1441C24.364 18.3461 24.29 15.3201 21.996 12.7281L21.982 12.7581ZM6.49 17.0421C6.52 17.9411 7.283 18.6901 8.198 18.6901H8.258C8.48318 18.685 8.70507 18.6349 8.91059 18.5428C9.11611 18.4506 9.30111 18.3183 9.45468 18.1535C9.60826 17.9887 9.72731 17.7949 9.80482 17.5834C9.88233 17.372 9.91673 17.1471 9.906 16.9221C9.906 16.0221 9.127 15.2751 8.213 15.2751H8.153C8.093 15.2751 8.003 15.2751 7.927 15.3041C6.684 13.2061 6.159 10.9571 6.355 8.53212C6.475 6.70412 7.075 5.11512 8.152 3.79712C9.052 2.67312 10.745 2.11712 11.899 2.08912C15.135 2.02812 16.484 6.06012 16.588 7.66312L18.086 8.11312C17.741 3.19712 14.686 0.620117 11.764 0.620117C9.02 0.620117 6.49 2.61312 5.47 5.53512C4.077 9.43012 4.991 13.1771 6.7 16.1741C6.55 16.3691 6.46 16.7131 6.49 17.0421Z" fill="#F3EEF7"/>
</g>
<defs>
<clipPath id="clip0_347_668">
<rect width="24" height="24" fill="white"/>
</clipPath>
</defs>
</svg>
