<svg width="24" height="24" viewBox="0 0 24 24" fill="none" xmlns="http://www.w3.org/2000/svg">
<g clip-path="url(#clip0_347_726)">
<path d="M17.61 0.455078C16.7056 0.455078 15.8383 0.814345 15.1988 1.45384C14.5593 2.09334 14.2 2.96069 14.2 3.86508C14.2 4.76947 14.5593 5.63681 15.1988 6.27631C15.8383 6.91581 16.7056 7.27508 17.61 7.27508C18.5144 7.27508 19.3817 6.91581 20.0212 6.27631C20.6607 5.63681 21.02 4.76947 21.02 3.86508C21.02 2.96069 20.6607 2.09334 20.0212 1.45384C19.3817 0.814345 18.5144 0.455078 17.61 0.455078ZM12.92 0.800078C8.923 0.777078 5.137 2.94108 3.148 6.45108C3.23458 6.44624 3.32128 6.44391 3.408 6.44408C4.32137 6.44504 5.21645 6.70023 5.993 7.18108C6.74455 6.09558 7.74376 5.20463 8.90797 4.58192C10.0722 3.95921 11.3679 3.62265 12.688 3.60008C12.7431 2.59416 13.1042 1.62909 13.723 0.834078C13.4558 0.812974 13.188 0.801633 12.92 0.800078ZM22.146 5.79408C21.752 6.72168 21.0825 7.50575 20.228 8.04008C20.9101 9.32781 21.2437 10.7715 21.1958 12.2279C21.1479 13.6843 20.7202 15.1029 19.955 16.3431C20.7533 16.9964 21.3245 17.8855 21.587 18.8831C23.0486 17.0391 23.8898 14.7801 23.9902 12.4293C24.0906 10.0784 23.4451 7.75598 22.146 5.79408ZM3.41 7.93208C2.50561 7.93208 1.63826 8.29135 0.998766 8.93084C0.359267 9.57034 0 10.4377 0 11.3421C0.000265166 12.2463 0.359649 13.1134 0.999119 13.7527C1.63859 14.3919 2.50579 14.7511 3.41 14.7511C4.31439 14.7511 5.18174 14.3918 5.82123 13.7523C6.46073 13.1128 6.82 12.2455 6.82 11.3411C6.82 10.4367 6.46073 9.56934 5.82123 8.92984C5.18174 8.29034 4.31439 7.93208 3.41 7.93208ZM5.437 15.7981C4.52465 16.2121 3.50743 16.3371 2.522 16.1561C3.20357 17.8416 4.28872 19.3339 5.68208 20.5018C7.07544 21.6697 8.73435 22.4774 10.513 22.8541C11.3089 23.0246 12.121 23.1081 12.935 23.1031C12.309 22.2826 11.9592 21.2848 11.936 20.2531C11.6552 20.2217 11.3762 20.1763 11.1 20.1171C9.89473 19.8622 8.76128 19.3423 7.78181 18.5951C6.80233 17.8479 6.00138 16.8921 5.437 15.7971V15.7981ZM16.842 16.7261C15.9376 16.7261 15.0703 17.0853 14.4308 17.7248C13.7913 18.3643 13.432 19.2317 13.432 20.1361C13.432 21.0405 13.7913 21.9078 14.4308 22.5473C15.0703 23.1868 15.9376 23.5461 16.842 23.5461C17.7464 23.5461 18.6137 23.1868 19.2532 22.5473C19.8927 21.9078 20.252 21.0405 20.252 20.1361C20.252 19.2317 19.8927 18.3643 19.2532 17.7248C18.6137 17.0853 17.7464 16.7261 16.842 16.7261Z" fill="#F3EEF7"/>
</g>
<defs>
<clipPath id="clip0_347_726">
<rect width="24" height="24" fill="white"/>
</clipPath>
</defs>
</svg>
