<svg width="24" height="24" viewBox="0 0 24 24" fill="none" xmlns="http://www.w3.org/2000/svg">
<g clip-path="url(#clip0_347_761)">
<path d="M8.286 10.5777L8.798 1.92074C8.80207 1.853 8.82855 1.78853 8.87326 1.73748C8.91797 1.68643 8.97839 1.6517 9.045 1.63874L17.377 0.00573514C17.4285 -0.00437017 17.4817 -0.0010815 17.5315 0.0152856C17.5813 0.0316527 17.6261 0.060549 17.6615 0.0992018C17.697 0.137855 17.7219 0.184967 17.7339 0.236018C17.7458 0.287069 17.7445 0.340345 17.73 0.390735L16.172 5.79374C16.1575 5.84403 16.1562 5.89719 16.1682 5.94814C16.1801 5.99909 16.2049 6.04612 16.2403 6.08474C16.2756 6.12337 16.3202 6.15229 16.3699 6.16874C16.4195 6.1852 16.4726 6.18864 16.524 6.17874L18.912 5.71874C18.9682 5.70775 19.0263 5.71274 19.0798 5.73316C19.1333 5.75357 19.18 5.78858 19.2146 5.8342C19.2492 5.87983 19.2703 5.93424 19.2755 5.99126C19.2807 6.04827 19.2698 6.10561 19.244 6.15674L12.454 19.7067L12.331 19.8967C12.3046 19.9397 12.2675 19.9752 12.2233 19.9997C12.1792 20.0243 12.1295 20.037 12.079 20.0367C11.902 20.0367 11.729 19.8847 11.774 19.6677L12.869 14.3667C12.8797 14.3148 12.8768 14.261 12.8605 14.2105C12.8442 14.1601 12.815 14.1147 12.7759 14.0789C12.7368 14.0431 12.689 14.0181 12.6373 14.0064C12.5856 13.9946 12.5318 13.9964 12.481 14.0117L11.048 14.4467C10.9973 14.4622 10.9434 14.4642 10.8916 14.4526C10.8399 14.4409 10.7921 14.416 10.7528 14.3803C10.7136 14.3446 10.6843 14.2994 10.6679 14.2489C10.6514 14.1985 10.6484 14.1447 10.659 14.0927L11.349 10.7177C11.3595 10.6673 11.357 10.6151 11.342 10.5659C11.3269 10.5167 11.2997 10.4721 11.2628 10.4362C11.2259 10.4003 11.1806 10.3743 11.1309 10.3606C11.0813 10.3469 11.0291 10.3459 10.979 10.3577L8.659 10.8937C8.6127 10.9044 8.56455 10.9041 8.51838 10.8929C8.47221 10.8817 8.42928 10.8599 8.39299 10.8292C8.3567 10.7986 8.32805 10.7599 8.30931 10.7162C8.29056 10.6726 8.28224 10.6252 8.285 10.5777H8.286ZM23.262 2.65174L17.284 3.73974L16.74 5.62674L18.817 5.22674C18.978 5.19465 19.1449 5.21284 19.2952 5.27885C19.4454 5.34486 19.5717 5.45549 19.657 5.59574C19.7294 5.71237 19.7705 5.84566 19.7765 5.98279C19.7824 6.11991 19.753 6.25627 19.691 6.37874L12.9 19.9297L12.887 19.9547L12.872 19.9777L12.75 20.1677C12.6779 20.2807 12.5786 20.3738 12.4612 20.4384C12.3438 20.5031 12.212 20.5372 12.078 20.5377C11.9566 20.5371 11.8369 20.5097 11.7273 20.4575C11.6177 20.4053 11.521 20.3296 11.444 20.2357C11.3691 20.143 11.3159 20.0348 11.2882 19.9188C11.2605 19.8029 11.2591 19.6823 11.284 19.5657L12.313 14.5847L11.193 14.9247C11.0398 14.9709 10.8764 14.9706 10.7233 14.924C10.5703 14.8774 10.4344 14.7865 10.333 14.6627C10.2574 14.5704 10.2033 14.4623 10.1748 14.3464C10.1462 14.2305 10.1439 14.1097 10.168 13.9927L10.798 10.9127L8.771 11.3807C8.63378 11.4122 8.49073 11.4072 8.35603 11.3663C8.22132 11.3255 8.09962 11.2501 8.003 11.1477C7.92809 11.0676 7.87024 10.9731 7.83294 10.87C7.79563 10.7669 7.77967 10.6572 7.786 10.5477L8.175 3.97774L0.735 2.64774C0.620369 2.62705 0.502214 2.63951 0.394417 2.68364C0.28662 2.72778 0.193658 2.80176 0.126451 2.8969C0.0592441 2.99204 0.0205844 3.10439 0.0150133 3.22074C0.00944218 3.33709 0.0371911 3.45261 0.0950003 3.55374L11.58 23.6907C11.6337 23.785 11.7114 23.8633 11.8052 23.9176C11.8991 23.972 12.0057 24.0004 12.1142 24C12.2226 23.9996 12.329 23.9704 12.4225 23.9153C12.5159 23.8603 12.5931 23.7814 12.646 23.6867L23.906 3.55174C23.9624 3.45043 23.9889 3.33517 23.9824 3.21939C23.9759 3.1036 23.9366 2.99206 23.8691 2.89775C23.8016 2.80344 23.7087 2.73024 23.6012 2.68669C23.4937 2.64313 23.3761 2.63101 23.262 2.65174Z" fill="#F3EEF7"/>
</g>
<defs>
<clipPath id="clip0_347_761">
<rect width="24" height="24" fill="white"/>
</clipPath>
</defs>
</svg>
