<svg width="24" height="24" viewBox="0 0 24 24" fill="none" xmlns="http://www.w3.org/2000/svg">
<g clip-path="url(#clip0_347_769)">
<path d="M22.1987 18.4981L12.4288 24.0003V19.7148L18.516 16.381L22.1987 18.4981ZM22.867 17.8955V6.3885L19.2918 8.4429V15.8389L22.867 17.8955ZM1.8013 18.4981L11.5712 24.0003V19.7148L5.484 16.381L1.8013 18.4981ZM1.133 17.8955V6.3885L4.7081 8.4429V15.8389L1.133 17.8955ZM1.5513 5.644L11.5712 0V4.1434L5.152 7.6587L5.1031 7.6867L1.5513 5.644ZM22.4488 5.644L12.4288 0V4.1434L18.848 7.6588L18.8969 7.6868L22.4488 5.644ZM11.5713 18.74L5.5657 15.4527V8.9385L11.5711 12.391L11.5713 18.74ZM12.4288 18.74L18.4341 15.4527V8.9385L12.4288 12.391V18.74ZM5.9724 8.1846L12.0011 4.8831L18.03 8.1846L12.0012 11.6511L5.9724 8.1846Z" fill="#F3EEF7"/>
</g>
<defs>
<clipPath id="clip0_347_769">
<rect width="24" height="24" fill="white"/>
</clipPath>
</defs>
</svg>
