<svg width="24" height="24" viewBox="0 0 24 24" fill="none" xmlns="http://www.w3.org/2000/svg">
<path d="M12 22.5963C18.628 22.5963 24 18.2583 24 12.9083C24 9.5903 21.943 6.6603 18.781 4.9223C17.495 4.2073 16.484 3.5653 15.642 3.0323C14.058 2.0253 13.08 1.4043 12 1.4043C10.903 1.4043 9.666 2.1893 8.034 3.2253C7.11422 3.82173 6.17504 4.3877 5.218 4.9223C2.057 6.6603 0 9.5903 0 12.9083C0 18.2583 5.372 22.5953 12 22.5953V22.5963ZM10.599 4.7153C10.933 3.9563 11.102 3.1353 11.097 2.3063C11.097 2.1613 11.299 2.1193 11.327 2.2773C11.985 5.0603 10.425 6.4393 9.27 6.9013C9.146 6.9493 9.071 6.7803 9.167 6.6923C9.78003 6.14311 10.2683 5.46899 10.599 4.7153ZM12.657 4.6133C12.5618 3.79809 12.2953 3.01223 11.875 2.3073V2.2913C11.806 2.1683 11.961 2.0283 12.06 2.1193C14.022 4.2303 13.367 6.1863 12.616 7.1703C12.534 7.2733 12.386 7.1673 12.427 7.0443C12.6738 6.25916 12.7522 5.43079 12.657 4.6133ZM14.433 4.0523C14.0305 3.34231 13.4809 2.72656 12.821 2.2463V2.2323C12.709 2.1473 12.797 1.9583 12.935 2.0143C15.53 3.1013 15.709 5.1943 15.394 6.4213C15.3874 6.45038 15.3699 6.47581 15.345 6.4923C15.3212 6.50907 15.2918 6.51575 15.2631 6.51088C15.2345 6.50601 15.2089 6.48998 15.192 6.4663C15.1749 6.44221 15.167 6.41272 15.17 6.3833C15.09 5.56331 14.839 4.76921 14.433 4.0523ZM9.346 4.6133C8.729 5.1593 8.064 5.3733 7.283 5.6133C7.166 5.6133 7.088 5.5353 7.127 5.4323C8.879 4.5233 9.503 3.7833 10.126 2.6543C10.126 2.6543 10.281 2.5363 10.314 2.7393C10.314 3.0433 9.965 4.0683 9.346 4.6133ZM14.291 15.8503C14.1491 16.4533 13.8213 16.9966 13.354 17.4033C13.008 17.7493 12.554 17.9683 12.068 18.0233C11.5674 17.976 11.0985 17.757 10.741 17.4033C10.278 16.995 9.95455 16.4519 9.816 15.8503C9.81141 15.8146 9.81477 15.7784 9.82584 15.7441C9.8369 15.7099 9.8554 15.6785 9.88 15.6523C9.90483 15.6269 9.9351 15.6075 9.96854 15.5955C10.002 15.5836 10.0377 15.5794 10.073 15.5833H14.038C14.0729 15.5794 14.1083 15.5837 14.1413 15.5958C14.1743 15.608 14.204 15.6277 14.228 15.6533C14.278 15.7063 14.301 15.7783 14.291 15.8503ZM8.833 13.6743C8.47037 13.9206 8.03244 14.0311 7.59634 13.9863C7.16025 13.9415 6.75395 13.7442 6.449 13.4293C6.14015 13.1073 5.94909 12.6905 5.9068 12.2463C5.86451 11.8022 5.97346 11.3568 6.216 10.9823C6.423 10.6633 6.719 10.4163 7.064 10.2693C7.40833 10.1224 7.78929 10.084 8.156 10.1593C8.522 10.2343 8.859 10.4203 9.123 10.6903C9.3877 10.9658 9.56705 11.3119 9.63945 11.687C9.71184 12.0621 9.67418 12.4501 9.531 12.8043C9.38881 13.1563 9.14603 13.4595 8.833 13.6743ZM17.328 13.6793C16.9649 13.9242 16.5269 14.0332 16.0914 13.9869C15.6558 13.9406 15.2506 13.7421 14.947 13.4263C14.5945 13.0591 14.3984 12.5693 14.4 12.0603C14.4 11.6763 14.51 11.3003 14.72 10.9813C14.927 10.6623 15.223 10.4143 15.569 10.2683C15.9139 10.1221 16.2952 10.0844 16.662 10.1603C17.029 10.2363 17.366 10.4223 17.63 10.6943C17.8939 10.9709 18.0722 11.318 18.1431 11.6936C18.2141 12.0693 18.1748 12.4575 18.03 12.8113C17.8865 13.1634 17.6423 13.4653 17.328 13.6793Z" fill="#F3EEF7"/>
</svg>
