<svg width="24" height="24" viewBox="0 0 24 24" fill="none" xmlns="http://www.w3.org/2000/svg">
<g clip-path="url(#clip0_347_797)">
<path d="M12.04 5.54793e-05C5.408 -0.0199445 0.00500488 5.37005 0.00500488 11.9921H4.643C4.643 7.06906 9.525 3.26106 14.707 5.13706C15.6588 5.48438 16.5232 6.03562 17.2395 6.75214C17.9559 7.46867 18.5069 8.33316 18.854 9.28506C20.743 14.4621 16.93 19.3401 12.014 19.3491V14.7391H7.391V19.3621H12.001V24.0001C19.861 24.0001 25.968 16.4121 23.398 8.17006C22.283 4.58006 19.413 1.72406 15.823 0.595056C14.5987 0.208045 13.323 0.00746613 12.039 5.54793e-05H12.04ZM7.391 19.3621H3.828V22.9261H7.39L7.391 19.3621ZM3.827 19.3621V16.3841H0.850005V19.3621H3.827Z" fill="#F3EEF7"/>
</g>
<defs>
<clipPath id="clip0_347_797">
<rect width="24" height="24" fill="white"/>
</clipPath>
</defs>
</svg>
