<svg width="24" height="24" viewBox="0 0 24 24" fill="none" xmlns="http://www.w3.org/2000/svg">
<g clip-path="url(#clip0_347_730)">
<path d="M1.84601 6.80892e-06C1.6034 -0.000652986 1.36306 0.0466449 1.13879 0.139181C0.914528 0.231718 0.710765 0.367668 0.539216 0.539216C0.367668 0.710765 0.231718 0.914528 0.139181 1.13879C0.0466449 1.36306 -0.000652986 1.6034 6.80892e-06 1.84601V20.309C6.80892e-06 21.331 0.823007 22.154 1.84601 22.154H22.154C22.3964 22.1547 22.6366 22.1074 22.8608 22.015C23.0849 21.9226 23.2886 21.7868 23.4601 21.6155C23.6316 21.4442 23.7676 21.2406 23.8603 21.0166C23.9529 20.7926 24.0004 20.5524 24 20.31V1.84601C24.0007 1.6034 23.9534 1.36306 23.8608 1.13879C23.7683 0.914528 23.6323 0.710765 23.4608 0.539216C23.2892 0.367668 23.0855 0.231718 22.8612 0.139181C22.637 0.0466449 22.3966 -0.000652986 22.154 6.80892e-06H1.84601ZM1.84601 0.924007H22.154C22.666 0.924007 23.076 1.33401 23.076 1.84601V20.309C23.076 20.82 22.666 21.23 22.154 21.23H1.84601C1.7249 21.2304 1.60491 21.2069 1.49294 21.1607C1.38096 21.1146 1.27921 21.0468 1.19353 20.9612C1.10784 20.8756 1.03993 20.7739 0.993671 20.662C0.947418 20.5501 0.923743 20.4301 0.924007 20.309V1.84601C0.924007 1.33401 1.33401 0.924007 1.84601 0.924007ZM1.84601 1.84601V20.309H22.154V1.84601H1.84601ZM3.69101 3.98601L6.92601 5.74401V6.58001L3.69001 8.47701V7.38501L5.93301 6.17801V6.14501L3.69001 5.07601L3.69101 3.98601ZM7.84601 9.23001H11.539V10.154H7.84601V9.23001ZM6.80892e-06 21.736V22.154C6.80892e-06 23.177 0.823007 24 1.84601 24H22.154C22.3966 24.0007 22.637 23.9534 22.8612 23.8608C23.0855 23.7683 23.2892 23.6323 23.4608 23.4608C23.6323 23.2892 23.7683 23.0855 23.8608 22.8612C23.9534 22.637 24.0007 22.3966 24 22.154V21.736C23.7831 22.0202 23.5039 22.2507 23.1839 22.4099C22.8638 22.569 22.5115 22.6526 22.154 22.654H1.84601C1.48856 22.6526 1.13621 22.569 0.816153 22.4099C0.496092 22.2507 0.216865 22.0202 6.80892e-06 21.736Z" fill="#F3EEF7"/>
</g>
<defs>
<clipPath id="clip0_347_730">
<rect width="24" height="24" fill="white"/>
</clipPath>
</defs>
</svg>
